<?xml version="1.0" encoding="utf-8"?>
<!DOCTYPE svg PUBLIC "-//W3C//DTD SVG 1.1//EN" "http://www.w3.org/Graphics/SVG/1.1/DTD/svg11.dtd">
<svg version="1.1" xmlns="http://www.w3.org/2000/svg" xmlns:xlink="http://www.w3.org/1999/xlink"  height="24px" viewBox="2 2 30 30" 
     width="24px" preserveAspectRatio="xMidYMid meet" focusable="false" style="background-color:white">
  <path stroke="rgb(16, 110, 190)" d="M 19.94 30.166 L 17.552 30.166 L 17.556 28.819 L 19.944 28.819 L 19.94 30.166 Z M 21.135 30.166 L 23.523 30.166 L 23.527 28.819 L 21.139 28.819 L 21.135 30.166 Z M 12.775 30.166 L 10.386 30.166 L 10.39 28.819 L 12.779 28.819 L 12.775 30.166 Z M 13.969 30.166 L 16.358 30.166 L 16.362 28.819 L 13.973 28.819 L 13.969 30.166 Z M 9.192 30.166 L 7.995 30.181 C 6.674 30.181 5.594 29.103 5.594 27.999 L 5.594 27.009 L 7.015 27.017 L 7.023 27.918 C 7.029 28.462 7.467 28.806 7.979 28.827 L 9.196 28.819 L 9.192 30.166 Z M 28.285 23.02 L 28.285 21.026 L 26.978 21.064 L 26.978 23.058 L 28.285 23.02 Z M 28.285 24.017 L 28.285 26.011 L 26.978 26.049 L 26.978 24.055 L 28.285 24.017 Z M 5.594 23.02 L 5.594 21.026 L 7.015 21.034 L 7.015 23.028 L 5.594 23.02 Z M 5.594 24.017 L 5.594 26.011 L 6.992 25.996 L 7.015 24.025 L 5.594 24.017 Z M 29.494 18.84 L 29.479 17.037 L 30.816 17.037 L 30.816 22.022 L 29.479 22.022 L 29.52 20.287 L 4.441 20.287 L 4.4 22.022 L 3.064 22.022 L 3.064 17.037 L 4.4 17.037 L 4.415 18.84 L 29.494 18.84 Z M 28.285 18.033 L 28.285 11.053 L 22.321 11.053 C 20.998 11.053 19.925 10.169 19.925 9.061 L 19.925 3.076 L 7.993 3.076 C 6.669 3.076 5.594 3.971 5.594 5.077 L 5.594 18.033 L 28.285 18.033 Z M 28.285 27.009 L 28.285 28.009 C 28.285 29.111 27.232 30.166 25.914 30.166 L 24.75 30.166 L 24.721 28.819 L 25.992 28.827 C 26.549 28.725 26.865 28.61 26.921 28.116 L 26.978 27.047 L 28.285 27.009 Z M 21.12 3.076 L 21.12 9.056 C 21.12 9.608 21.658 10.056 22.302 10.056 L 28.285 10.056 L 21.12 3.076 Z" />
</svg>
