<?xml version="1.0" encoding="utf-8"?>
<!-- Svg Vector Icons : http://www.onlinewebfonts.com/icon -->
<!DOCTYPE svg PUBLIC "-//W3C//DTD SVG 1.1//EN" "http://www.w3.org/Graphics/SVG/1.1/DTD/svg11.dtd">
<svg version="1.1" xmlns="http://www.w3.org/2000/svg" xmlns:xlink="http://www.w3.org/1999/xlink" x="0px" y="0px" viewBox="0 0 1000 1000" enable-background="new 0 0 1000 1000" xml:space="preserve">
<metadata> Svg Vector Icons : http://www.onlinewebfonts.com/icon </metadata>
<g><g fill='#0078D4' transform="translate(0.000000,511.000000) scale(0.100000,-0.100000)"><path d="M2190.8,4517.9c-505.2-94-894.5-430.8-1078.2-933.9l-59.1-159.6L1047,653.5c-6.6-3103.4-13.1-2939.3,150.9-3276.1c179.3-360.9,551.1-649.6,949.2-732.7c229.6-48.1,6418.9-48.1,6648.5,0c509.6,107.2,951.3,535.8,1069.5,1038.8c28.4,120.3,35,398,35,1869.9v1727.7L8264.1,2917L6630.4,4550.7l-2143.3-2.2C2831.6,4546.3,2308.9,4539.8,2190.8,4517.9z M6182.1,3046.1c0-949.2,2.2-1038.8,43.8-1194.1c63.4-251.5,159.7-413.3,360.9-616.7c190.3-192.5,308.4-266.8,557.7-354.3l164-59.1l1067.3-6.6l1067.2-6.6l-6.5-1502.5l-6.6-1502.5l-52.5-126.8c-96.2-242.8-312.7-452.7-564.2-546.7l-126.9-48.1l-3116.5-6.6c-1953-4.4-3169,2.2-3254.3,15.3c-402.4,61.2-715.2,365.2-791.7,765.5c-13.1,76.5-21.9,1041-21.9,2722.8c0,2790.6,0,2773.1,109.4,2987.5c59.1,115.9,223.1,295.2,339,367.4c216.5,137.8,135.6,133.4,2281,133.4l1950.8,2.2V3046.1z M8408.5,1274.6c-905.4-6.6-1038.8,4.4-1240.1,98.4c-142.2,67.8-347.7,262.4-415.5,395.8c-105,205.6-111.5,284.3-111.5,1229.1v885.7l1301.3-1301.3l1301.3-1301.3L8408.5,1274.6z"/><path d="M108.7,183.3c8.8-2755.6,0-2593.8,150.9-2991.8c286.5-750.1,887.9-1264.1,1719-1469.7c131.2-32.8,437.4-37.2,3103.4-43.7l2959-8.7v242.7v240.6H5127.9c-3179.9,0-3029-4.4-3374.6,129c-240.6,91.8-426.5,218.7-636.4,428.6c-212.1,212.1-352.1,441.8-452.7,732.7l-70,207.8l-6.6,2510.7l-4.4,2508.5H340.6H100L108.7,183.3z"/></g></g>
</svg>
